<svg t="1606722355991" class="icon" viewBox="0 0 1024 1024" version="1.1" xmlns="http://www.w3.org/2000/svg" p-id="778" width="25" height="25"><path d="M530.96224539 795.17505042h-86.16894734c-16.71845363 0-30.34089711-15.30028113-30.34089774-33.95623815v-91.08261473h-104.70505821v91.02269195c0 18.71587919-13.6224435 33.95623815-30.34089712 33.95623816H191.63955682c-16.71845363 0-30.36087177-15.30028113-30.36087176-33.95623816V547.5342043h-51.93306942c-12.80349934 0-23.96910913-8.72875077-28.40339432-22.17142596a36.47299461 36.47299461 0 0 1 8.46908504-37.47170708L336.53282157 240.48991625l0.11984553-0.13981963a38.86990553 38.86990553 0 0 1 54.98913143-0.25966574c0.49935625 0.47938219 0.97873842 0.97873842 1.43814656 1.47809526l242.30771872 247.12151523 0.13982019 0.11984554a36.69271104 36.69271104 0 0 1 7.3105783 37.39181025c-4.5741048 13.02321578-15.65981777 21.45235268-28.16370324 21.45235267h-53.37121655v213.46489095c0 18.75582789-13.6224435 34.05610905-30.34089712 34.05610964z" fill="#999999" p-id="779"></path></svg>