<svg xmlns="http://www.w3.org/2000/svg" xmlns:xlink="http://www.w3.org/1999/xlink" viewBox="0 0 687.42 241.61"><defs><style>.cls-1{fill:url(#未命名的渐变_55);}.cls-2{fill:#6294ca;}.cls-3{clip-path:url(#clip-path);}.cls-4{fill:url(#未命名的渐变_55-3);}.cls-5{fill:none;}</style><linearGradient id="未命名的渐变_55" x1="120.8" y1="60.75" x2="120.8" y2="180.85" gradientUnits="userSpaceOnUse"><stop offset="0" stop-color="#98ddf6"/><stop offset="0.65" stop-color="#71a9d6"/><stop offset="1" stop-color="#6091c8"/></linearGradient><clipPath id="clip-path"><path class="cls-1" d="M164.77,162a61.23,61.23,0,0,0,7.46-9.56c-43.87,12.8-72.5-9.3-72.5-9.3,16.15,18.49,44.43,20.42,65,18.86M60.05,120.1a60.76,60.76,0,0,0,86.48,55,99.38,99.38,0,0,1-32.5-5.86C94.12,161.85,79.81,147.52,75.82,127c-4.65-23.9,3-54.48,26.23-64.72a60.8,60.8,0,0,0-42,57.8M110.3,61.69c-.63.21-1.26.44-1.89.67C93.74,67.82,86,79,84.08,89.63,81.88,101.94,86.34,116,97,125.47c21.53,19.05,63.07,11.65,84.51-3.42,0-.65,0-1.3,0-2a60.77,60.77,0,0,0-33.38-54.25c7.12,7.32,10.15,15.28,10.13,22.64A27.09,27.09,0,0,1,145,111.64c-9.53,5.69-22.18,5.09-31.59-.56a22.75,22.75,0,0,1-10.72-25.16c2.85-11.83,14.18-15.23,22.26-14,5.53.87,9.08,2.75,12.6,7.14-6.45-1.57-18.94,1.67-23,10A15.33,15.33,0,0,0,113,97.78c2.27,18.5,27.35,20.47,33.71,1.46.16-.48.31-1,.44-1.45-4,1-8.9.18-14.3-1.34,16.88-1.8,13.26-17.08,10.95-22-6.49-11.43-17.45-13.68-25-13.68a36,36,0,0,0-8.43.94"/></clipPath><linearGradient id="未命名的渐变_55-3" x1="-372.43" y1="627.09" x2="-371.43" y2="626.1" gradientTransform="matrix(0, 171.28, 171.28, 0, -107203.86, 63825.88)" xlink:href="#未命名的渐变_55"/></defs><title>资源 7</title><g id="图层_2" data-name="图层 2"><g id="图层_1-2" data-name="图层 1"><path class="cls-2" d="M225.76,95.72v33.22h-8.2V95.72h-5.84V88.15h5.84V74.05h8.2v14.1H231v7.57Zm40.39,20.8H259.8v5.08c0,3.35-.58,5.09-2.95,6.13s-5.2,1-9,1a24.4,24.4,0,0,0-2.14-6.65c2,.06,4.62.12,5.31.06s1-.17,1-.81v-4.85H241.71c2,1.15,4.1,2.42,5.38,3.29l-4.57,5.66c-1.91-1.56-5.89-4.16-8.67-6l2.6-3h-7.51v-6.71H252V108h7.8v1.79h6.35ZM244.37,85.43H230.44v-6.3h13.93V74.05h7.51v5.08h4.22L253.27,78l3-4.57a73.16,73.16,0,0,1,7.52,2.77L262,79.13h3.88v6.3h-14v1.79h11.79v20h-7.45v-2.13h-4.34v2h-7.51v-2h-4.51v3.12h-7.1v-21h11.61Zm-4.51,7.17V94h4.51V92.6Zm4.51,7.68v-1.5h-4.51v1.5Zm7.51-7.68V94h4.34V92.6Zm4.34,7.68v-1.5h-4.34v1.5Z"/><path class="cls-2" d="M319.26,84.85A24.33,24.33,0,0,1,314,93.17a33,33,0,0,0,10.92,4,28.49,28.49,0,0,0-4.51,6.24,31.55,31.55,0,0,1-12-5.95,39,39,0,0,1-9.19,3.75,26,26,0,0,0-3.81-6.12,37.63,37.63,0,0,0,8.15-2.72,25.82,25.82,0,0,1-2-3.18A25.53,25.53,0,0,1,299,91.15a37.71,37.71,0,0,0-1.85-3.35v3.64H284.54a6.38,6.38,0,0,0-.29,1.1h11.32s-.05,1.1-.11,1.73c-.35,2.72-.93,4.1-1.91,4.91a4.28,4.28,0,0,1-1,.58l2.89.69c-.35.29-.69.64-1,.93h12l1.44-.35,4,3.7c-1.27.69-2.66,1.39-4.1,2.08h9.88v13.52H276.74v-9.65c-1.28.41-2.66.81-4.05,1.21a20.79,20.79,0,0,0-3.76-5.48c7.46-1.62,13.24-3.82,17.17-6.3-.81,0-1.74-.06-2.6-.12a9,9,0,0,0-.93-2.83,29.25,29.25,0,0,0,4.1.17c.7,0,1,0,1.39-.34a1.7,1.7,0,0,0,.41-.58h-5.9a16.07,16.07,0,0,1-7.63,6.7,31.66,31.66,0,0,0-5-5.08c3.87-1.39,6.18-3.53,7.16-6.59h-6.47V87.28h10.05V86h-7.33V82h7.33V80.58h-8.43v-4h8.43V74h7.75v2.6h8v4h-8V82h7v2.55A21.92,21.92,0,0,0,304,74.1l6.82,1.74a28.77,28.77,0,0,1-1.33,3h13.12v6Zm-49.69,36.7h54.66v6H269.57Zm23.52-11h-8.5v1.27h8.5Zm-8.5,6.12h8.5V115.3h-8.5Zm3.53-10.92c-.64.41-1.33.75-2,1.1h9.53c.93-.29,1.91-.69,2.89-1.1Zm8.72-18.43a19.63,19.63,0,0,0-1.38-2V86h-7v1.33Zm12.49,23.23h-8.5v1.27h8.5Zm0,4.79h-8.5v1.33h8.5Zm-3.59-30.45a21.61,21.61,0,0,0,2.89,4,13.86,13.86,0,0,0,2.83-4Z"/><path class="cls-2" d="M359.55,115.25c1.73-.47,3.52-.93,5.26-1.39l1.15,7.22c-5.72,1.74-11.84,3.53-16.87,5l-1.68-6.18c-9,5.89-11,7.16-12.07,8.38a27.91,27.91,0,0,0-3.82-7.34,6.72,6.72,0,0,0,3.24-5.49V99.7h-6.13v-8h14.1v22.59l4.45-2.77a47.29,47.29,0,0,0,1.74,6.41l3-.69V105.94h-4V98.26H363.3v7.68h-3.75ZM340,89.3c-1.85-2.71-6.07-6.76-9.25-9.59l5.38-5.09c3.17,2.55,7.57,6.3,9.59,8.9Zm32.24,3.3c.52,14,1.74,24.38,2.95,24.44.58,0,.92-2.66,1-7.63,1.39,1.79,5.26,4.16,6.53,4.91-1.62,12.08-5.43,14.16-7.92,14.16-7.39-.06-10-12.94-10.92-35.88H346.26v-8h17.39q-.09-4.77-.17-10.05H372V77.8l5.2-3.18a37.51,37.51,0,0,1,5.2,7.57l-3.81,2.43h3.29v8Zm3.64-8A40.37,40.37,0,0,0,372,78.55c0,2,.06,4,.06,6.07Z"/><path class="cls-2" d="M439,83.52h-6.59a25.76,25.76,0,0,1,2.2,3.18l-6.94,3.12a35.07,35.07,0,0,0-4.27-6.3H422a30.24,30.24,0,0,1-3.24,4.34c-.92-.58-2.42-1.45-3.93-2.2a27.6,27.6,0,0,1,2.37,4.45H438v10.46h-7.29v11.21H402.89v1.85h31v15.43h-8.37v-1.39h-22.6v1.39h-8.55V100.57H387V90.11h21.79c-.35-.87-.81-1.79-1.22-2.6l-5.95,2.2A30,30,0,0,0,398,83.52h-1.16a38.1,38.1,0,0,1-4.79,6.53,53.29,53.29,0,0,0-7.29-3.64,33,33,0,0,0,7.92-12.94L401,75c-.35.92-.76,1.91-1.16,2.83h12.83v5.6a26.09,26.09,0,0,0,5.14-10l8.09,1.44a28.84,28.84,0,0,1-1,3H439Zm-9.54,12.77H395.09v1.79h34.38ZM422.54,104H402.89v1.91h19.65Zm-19.65,15.66v2h22.6v-2Zm11.85-34c-1.1-.52-2.14-1-2.89-1.33a8.84,8.84,0,0,0,.75-.75h-6a28.89,28.89,0,0,1,2,3.35Z"/><path class="cls-2" d="M465.25,120.1c0,3.58-.46,5.89-2.54,7.28s-4.63,1.56-8.33,1.56a27.12,27.12,0,0,0-2.19-8.09c1.73.12,3.75.06,4.45.06s.87-.23.87-1V110h-4.28c-.52,6.82-1.68,13.87-4,19.07a29.51,29.51,0,0,0-6.76-3.82c3.47-7.86,3.7-19.53,3.7-28V76h19.07Zm-7.74-18V96.64h-3.82v.58c0,1.5,0,3.12-.06,4.85Zm-3.82-18.32V88.9h3.82V83.75Zm43.51,14a53.41,53.41,0,0,1-6.35,19.36,29,29,0,0,0,8,5.37,30,30,0,0,0-5.2,6.47,31.86,31.86,0,0,1-7.45-5.55,31.17,31.17,0,0,1-6.94,5.61,33,33,0,0,0-3.87-5.26v5.2h-7.92V76h27.91V87.22c0,3.53-.75,5.49-3.46,6.53s-6.13,1-10.52,1a28,28,0,0,0-2.43-7c2.55.17,6.24.17,7.11.11s1.27-.17,1.27-.86v-3.3h-12V96.41H490.9l1.33-.23Zm-21.84,24.61a23.21,23.21,0,0,0,5.89-5.08,55.64,55.64,0,0,1-5.89-12.48ZM482.18,104a38,38,0,0,0,3.41,6.7,35.29,35.29,0,0,0,2.54-6.7Z"/><path class="cls-2" d="M552.57,82.25a37.85,37.85,0,0,1-13.7,11.91,135.29,135.29,0,0,0,16.88,1.56,32.54,32.54,0,0,0-4.63,7.33c-8.84-.57-16.58-1.85-23.17-4.21a117.31,117.31,0,0,1-23.11,4.85,29.37,29.37,0,0,0-3.24-7.28A123.41,123.41,0,0,0,518.07,94a39.54,39.54,0,0,1-4.62-3.64,54.72,54.72,0,0,1-5.72,3.24,25.93,25.93,0,0,0-4.8-6.54c8.26-3.4,13.52-8.26,16.41-13.11l8.5,1.73c-.76,1.22-1.57,2.43-2.37,3.58h20.62l1.28-.34Zm-1.33,23.92s-.18,2.2-.41,3.24c-1.27,9.59-2.77,14.33-5.08,16.35-1.91,1.79-4,2.26-7,2.43a101.11,101.11,0,0,1-10.23,0,15.16,15.16,0,0,0-2.66-7.17c3.93.35,8.38.41,10.23.41a4.67,4.67,0,0,0,2.95-.64c1.09-.81,2.08-3.23,2.94-7.51H527.6c-4,8-10.69,12.71-20.63,15.6a34.2,34.2,0,0,0-5-6.87c7.45-1.56,12.71-4.34,16.12-8.73H505.7v-7.11h15.84a34.13,34.13,0,0,0,.92-4.44l8.73.69c-.23,1.33-.58,2.54-.87,3.75ZM518.94,86.3a26.24,26.24,0,0,0,8.78,5.08,47.76,47.76,0,0,0,10.63-5.14h-19.3Z"/><path class="cls-2" d="M610.24,83.93V114H601.4v-2.72H590.25v17.68h-8.9V111.26H570.26v3h-8.44V83.93h19.53V74.05h8.9v9.88ZM581.35,103V92.19H570.26V103Zm20,0V92.19H590.25V103Z"/><path class="cls-2" d="M628.91,95.25c-.75,7.92-2,18.15-3.7,24.91l-8.61-3.47a117.67,117.67,0,0,0,4-23Zm11.68-4.45v26c0,2.83.34,3.18,2.88,3.18h6.65c2.6,0,3.06-1.68,3.47-10.23a26.45,26.45,0,0,0,7.86,3.52c-.87,11-3.07,14.51-10.58,14.51h-8.55c-8.26,0-10.52-2.66-10.52-11V90.8Zm-1.51-16.52c5.2,3.12,12.77,8,16.36,11.61l-6.24,6.65c-3.18-3.59-10.46-9-15.84-12.48Zm25.37,17.33a105.4,105.4,0,0,1,7.34,21.56l-8.55,3.58a101.43,101.43,0,0,0-6.65-21.9Z"/><path class="cls-2" d="M225.66,148h6.91c4.58,0,7.88,1.45,7.88,5.48a5,5,0,0,1-3.18,4.82v.15a5.12,5.12,0,0,1,4.39,5.31c0,4.42-3.6,6.54-8.54,6.54h-7.46Zm6.52,9.3c3.39,0,4.82-1.27,4.82-3.36,0-2.34-1.58-3.21-4.73-3.21h-3.09v6.57Zm.54,10.24c3.49,0,5.49-1.24,5.49-4,0-2.51-1.94-3.6-5.49-3.6h-3.54v7.57Z"/><path class="cls-2" d="M244.39,162c0-5.58,3.73-8.79,7.85-8.79s7.85,3.21,7.85,8.79-3.73,8.7-7.85,8.7S244.39,167.55,244.39,162Zm12.12,0c0-3.55-1.63-5.91-4.27-5.91S248,158.49,248,162s1.63,5.85,4.24,5.85S256.51,165.55,256.51,162Z"/><path class="cls-2" d="M262.76,165.92c0-3.58,3-5.43,10-6.18,0-1.94-.73-3.64-3.18-3.64a9.15,9.15,0,0,0-4.82,1.7l-1.31-2.37a12.81,12.81,0,0,1,6.73-2.18c4.15,0,6.06,2.64,6.06,7.06v10h-2.85l-.3-1.91H273a8.24,8.24,0,0,1-5.3,2.31A4.61,4.61,0,0,1,262.76,165.92Zm10,.12V162c-4.94.6-6.61,1.85-6.61,3.73,0,1.63,1.12,2.3,2.61,2.3A5.91,5.91,0,0,0,272.73,166Z"/><path class="cls-2" d="M280,162c0-5.58,3.73-8.79,7.85-8.79s7.85,3.21,7.85,8.79-3.73,8.7-7.85,8.7S280,167.55,280,162Zm12.12,0c0-3.55-1.63-5.91-4.27-5.91s-4.24,2.36-4.24,5.91,1.63,5.85,4.24,5.85S292.09,165.55,292.09,162Z"/><path class="cls-2" d="M311.43,151h-6.55V148h16.64V151h-6.58v19.36h-3.51Z"/><path class="cls-2" d="M321.52,162c0-5.43,3.7-8.79,7.61-8.79,4.42,0,6.78,3.18,6.78,7.91a9.14,9.14,0,0,1-.15,1.76H324.94c.28,3.18,2.28,5.09,5.16,5.09a7.17,7.17,0,0,0,4-1.24l1.21,2.21a10.14,10.14,0,0,1-5.64,1.76C325.13,170.74,321.52,167.52,321.52,162Zm11.39-1.52c0-2.88-1.3-4.54-3.72-4.54-2.09,0-3.94,1.6-4.28,4.54Z"/><path class="cls-2" d="M338.07,168.43l1.63-2.24a7.41,7.41,0,0,0,4.73,1.91c2,0,2.94-1,2.94-2.24,0-1.52-1.88-2.18-3.7-2.88-2.21-.85-4.75-2-4.75-4.85s2.24-4.88,5.91-4.88a8.76,8.76,0,0,1,5.42,2l-1.64,2.15a6.21,6.21,0,0,0-3.72-1.45c-1.82,0-2.67.91-2.67,2.06,0,1.42,1.73,2,3.54,2.63,2.34.88,4.91,1.91,4.91,5.07,0,2.78-2.21,5.06-6.33,5.06A10.2,10.2,0,0,1,338.07,168.43Z"/><path class="cls-2" d="M354.25,164.89v-8.43h-2.42v-2.6l2.57-.18.4-4.61h2.94v4.61h4.33v2.78h-4.33v8.46c0,2,.69,3,2.42,3a4.83,4.83,0,0,0,1.79-.4l.64,2.58a10.82,10.82,0,0,1-3.28.61C355.55,170.74,354.25,168.4,354.25,164.89Z"/><path class="cls-2" d="M377.37,151h-6.54V148h16.63V151h-6.57v19.36h-3.52Z"/><path class="cls-2" d="M389.25,164.16V153.68h3.49v10.06c0,2.87.82,4,2.79,4,1.54,0,2.6-.73,4-2.49V153.68H403v16.66h-2.85l-.27-2.51h-.09c-1.52,1.75-3.15,2.91-5.46,2.91C390.8,170.74,389.25,168.4,389.25,164.16Z"/><path class="cls-2" d="M411.41,168.61h-.09l-.34,1.73h-2.72V146.19h3.45v6.39l-.09,2.85a8,8,0,0,1,5-2.18c4.21,0,6.61,3.36,6.61,8.49,0,5.72-3.43,9-7.19,9A6.89,6.89,0,0,1,411.41,168.61Zm8.18-6.81c0-3.49-1.12-5.64-3.91-5.64a5.81,5.81,0,0,0-4,2v8.15a5.61,5.61,0,0,0,3.64,1.52C417.77,167.86,419.59,165.71,419.59,161.8Z"/><path class="cls-2" d="M426.14,162c0-5.43,3.69-8.79,7.6-8.79,4.43,0,6.79,3.18,6.79,7.91a9.14,9.14,0,0,1-.15,1.76H429.56c.27,3.18,2.27,5.09,5.15,5.09a7.12,7.12,0,0,0,4-1.24l1.21,2.21a10.08,10.08,0,0,1-5.63,1.76C429.74,170.74,426.14,167.52,426.14,162Zm11.39-1.52c0-2.88-1.3-4.54-3.73-4.54-2.09,0-3.94,1.6-4.27,4.54Z"/><path class="cls-2" d="M450,167.46l2.06-2.42a8.65,8.65,0,0,0,5.94,2.64c2.69,0,4.21-1.28,4.21-3.16,0-2-1.52-2.66-3.58-3.57l-3.09-1.34c-2.15-.9-4.54-2.6-4.54-5.84,0-3.52,3.09-6.16,7.33-6.16a9.55,9.55,0,0,1,6.76,2.82l-1.85,2.25a7.06,7.06,0,0,0-4.91-2c-2.27,0-3.76,1.09-3.76,2.87s1.79,2.64,3.61,3.37l3.06,1.3c2.64,1.12,4.54,2.76,4.54,6,0,3.58-3,6.49-7.84,6.49A11.12,11.12,0,0,1,450,167.46Z"/><path class="cls-2" d="M468.5,162c0-5.43,3.7-8.79,7.61-8.79,4.42,0,6.79,3.18,6.79,7.91a9.14,9.14,0,0,1-.15,1.76H471.93c.27,3.18,2.27,5.09,5.15,5.09a7.14,7.14,0,0,0,4-1.24l1.21,2.21a10.12,10.12,0,0,1-5.64,1.76C472.11,170.74,468.5,167.52,468.5,162Zm11.4-1.52c0-2.88-1.31-4.54-3.73-4.54-2.09,0-3.94,1.6-4.27,4.54Z"/><path class="cls-2" d="M486.81,153.68h2.85l.27,3H490c1.18-2.16,2.94-3.43,4.73-3.43a4.2,4.2,0,0,1,1.88.36l-.64,3a5,5,0,0,0-1.67-.27c-1.36,0-3,.94-4.06,3.58v10.39h-3.45Z"/><path class="cls-2" d="M497.63,153.68h3.57l2.85,9c.46,1.64,1,3.34,1.46,5h.12c.48-1.63,1-3.33,1.45-5l2.85-9h3.39l-5.75,16.66h-4Z"/><path class="cls-2" d="M515.9,148.49a2,2,0,0,1,2.21-2.06,2.07,2.07,0,1,1-2.21,2.06Zm.49,5.19h3.45v16.66h-3.45Z"/><path class="cls-2" d="M523.9,162c0-5.58,3.85-8.79,8.24-8.79a7.16,7.16,0,0,1,4.88,1.91l-1.72,2.27a4.36,4.36,0,0,0-3-1.3c-2.79,0-4.79,2.36-4.79,5.91s1.91,5.85,4.69,5.85a5.7,5.7,0,0,0,3.64-1.52l1.42,2.31a8.12,8.12,0,0,1-5.39,2.06C527.36,170.74,523.9,167.55,523.9,162Z"/><path class="cls-2" d="M538.78,162c0-5.43,3.7-8.79,7.61-8.79,4.42,0,6.79,3.18,6.79,7.91a8.32,8.32,0,0,1-.16,1.76H542.21c.27,3.18,2.27,5.09,5.15,5.09a7.14,7.14,0,0,0,4-1.24l1.21,2.21a10.12,10.12,0,0,1-5.64,1.76C542.39,170.74,538.78,167.52,538.78,162Zm11.4-1.52c0-2.88-1.31-4.54-3.73-4.54-2.09,0-3.94,1.6-4.27,4.54Z"/><path class="cls-2" d="M563,159.25c0-7.27,4.42-11.64,10.06-11.64a8.61,8.61,0,0,1,6.33,2.82l-1.91,2.25a5.91,5.91,0,0,0-4.36-2c-3.85,0-6.52,3.21-6.52,8.45s2.49,8.55,6.43,8.55a6.46,6.46,0,0,0,4.93-2.37l1.88,2.21a8.8,8.8,0,0,1-6.94,3.22C567.3,170.74,563,166.55,563,159.25Z"/><path class="cls-2" d="M582.3,162c0-5.43,3.7-8.79,7.61-8.79,4.42,0,6.78,3.18,6.78,7.91a9.14,9.14,0,0,1-.15,1.76H585.72C586,166.1,588,168,590.88,168a7.17,7.17,0,0,0,4-1.24l1.21,2.21a10.14,10.14,0,0,1-5.64,1.76C585.91,170.74,582.3,167.52,582.3,162Zm11.39-1.52c0-2.88-1.3-4.54-3.72-4.54-2.09,0-3.94,1.6-4.28,4.54Z"/><path class="cls-2" d="M600.6,153.68h2.85l.28,2.3h.09c1.54-1.49,3.24-2.73,5.51-2.73,3.55,0,5.12,2.36,5.12,6.61v10.48H611V160.28c0-2.88-.85-4-2.82-4-1.55,0-2.61.79-4.09,2.27v11.82H600.6Z"/><path class="cls-2" d="M620.06,164.89v-8.43h-2.42v-2.6l2.57-.18.4-4.61h2.94v4.61h4.33v2.78h-4.33v8.46c0,2,.69,3,2.42,3a4.83,4.83,0,0,0,1.79-.4l.63,2.58a10.69,10.69,0,0,1-3.27.61C621.36,170.74,620.06,168.4,620.06,164.89Z"/><path class="cls-2" d="M629.82,162c0-5.43,3.7-8.79,7.61-8.79,4.42,0,6.78,3.18,6.78,7.91a9.14,9.14,0,0,1-.15,1.76H633.24c.28,3.18,2.28,5.09,5.16,5.09a7.17,7.17,0,0,0,4-1.24l1.21,2.21a10.14,10.14,0,0,1-5.64,1.76C633.43,170.74,629.82,167.52,629.82,162Zm11.39-1.52c0-2.88-1.3-4.54-3.72-4.54-2.09,0-3.94,1.6-4.28,4.54Z"/><path class="cls-2" d="M648.12,153.68H651l.28,3h.09c1.18-2.16,2.94-3.43,4.72-3.43a4.17,4.17,0,0,1,1.88.36l-.63,3a5,5,0,0,0-1.67-.27c-1.36,0-3,.94-4.06,3.58v10.39h-3.46Z"/><path class="cls-1" d="M164.77,162a61.23,61.23,0,0,0,7.46-9.56c-43.87,12.8-72.5-9.3-72.5-9.3,16.15,18.49,44.43,20.42,65,18.86M60.05,120.1a60.76,60.76,0,0,0,86.48,55,99.38,99.38,0,0,1-32.5-5.86C94.12,161.85,79.81,147.52,75.82,127c-4.65-23.9,3-54.48,26.23-64.72a60.8,60.8,0,0,0-42,57.8M110.3,61.69c-.63.21-1.26.44-1.89.67C93.74,67.82,86,79,84.08,89.63,81.88,101.94,86.34,116,97,125.47c21.53,19.05,63.07,11.65,84.51-3.42,0-.65,0-1.3,0-2a60.77,60.77,0,0,0-33.38-54.25c7.12,7.32,10.15,15.28,10.13,22.64A27.09,27.09,0,0,1,145,111.64c-9.53,5.69-22.18,5.09-31.59-.56a22.75,22.75,0,0,1-10.72-25.16c2.85-11.83,14.18-15.23,22.26-14,5.53.87,9.08,2.75,12.6,7.14-6.45-1.57-18.94,1.67-23,10A15.33,15.33,0,0,0,113,97.78c2.27,18.5,27.35,20.47,33.71,1.46.16-.48.31-1,.44-1.45-4,1-8.9.18-14.3-1.34,16.88-1.8,13.26-17.08,10.95-22-6.49-11.43-17.45-13.68-25-13.68a36,36,0,0,0-8.43.94"/><g class="cls-3"><rect class="cls-4" x="35.38" y="35.38" width="170.84" height="170.84" transform="translate(-50.04 120.8) rotate(-45)"/></g><rect class="cls-5" x="44.42" y="44.8" width="643" height="152"/></g></g></svg>